<svg xmlns="http://www.w3.org/2000/svg" viewBox="0 0 24 24" fill="none">
<path fill-rule="evenodd" clip-rule="evenodd" d="M7.10352 4C7.42998 2.84575 8.49122 2 9.75 2H14.25C15.5088 2 16.57 2.84575 16.8965 4H18.25C19.7688 4 21 5.23122 21 6.75V19.25C21 20.7688 19.7688 22 18.25 22H5.75C4.23122 22 3 20.7688 3 19.25V6.75C3 5.23122 4.23122 4 5.75 4H7.10352ZM8.5 4.75V6.25C8.5 6.38807 8.61193 6.5 8.75 6.5H15.25C15.3881 6.5 15.5 6.38807 15.5 6.25V4.75C15.5 4.05964 14.9404 3.5 14.25 3.5H9.75C9.05964 3.5 8.5 4.05964 8.5 4.75Z" fill="currentColor"/>
</svg>
