<svg xmlns="http://www.w3.org/2000/svg" viewBox="0 0 24 24" fill="none">
<path fill-rule="evenodd" clip-rule="evenodd" d="M3.00001 13.7453L3.00004 5.75C3.00004 4.23122 4.23126 3.00001 5.75004 3L18.25 3C19.7688 3 21 4.23122 21 5.75V13.7466C21 13.7477 21 13.7489 21 13.75L21 18.25C21 19.7688 19.7688 21 18.25 21H5.75C4.32614 21 3.15502 19.9179 3.0142 18.5312C3.00481 18.4387 3 18.3449 3 18.25M5.75004 4.5L18.25 4.5C18.9403 4.5 19.5 5.05964 19.5 5.75V13L15.9298 13C15.5695 13 15.2601 13.2562 15.1929 13.6102C14.9078 15.1135 13.5858 16.25 12 16.25C10.4142 16.25 9.09221 15.1135 8.80706 13.6102C8.73991 13.2562 8.43051 13 8.0702 13H4.50002L4.50004 5.75C4.50004 5.05965 5.05968 4.50001 5.75004 4.5Z" fill="currentColor"/><path d="M3 18.25V13.75C3 13.7484 3 13.7469 3.00001 13.7453" fill="currentColor"/>
</svg>
